<svg width="105" height="38" viewBox="0 0 105 38" fill="none" xmlns="http://www.w3.org/2000/svg">
<path d="M29.96 12.015C30.11 12.915 30.215 13.89 30.275 14.94C30.365 15.99 30.365 17.265 30.275 18.765C30.185 20.235 29.975 22.05 29.645 24.21C29.195 27.12 28.01 29.565 26.09 31.545C24.17 33.495 21.755 34.77 18.845 35.37C18.035 35.55 17.09 35.685 16.01 35.775C14.93 35.835 13.85 35.895 12.77 35.955C11.72 35.985 10.775 36.03 9.935 36.09C9.185 36.24 8.285 36.345 7.235 36.405C6.185 36.465 5.195 36.45 4.265 36.36C3.335 36.27 2.66 36.105 2.24 35.865C2.48 35.445 2.675 34.815 2.825 33.975C2.975 33.105 3.095 32.16 3.185 31.14C3.275 30.12 3.305 29.145 3.275 28.215L3.14 12.96C3.14 11.73 3.125 10.605 3.095 9.585C3.095 8.565 3.065 7.77 3.005 7.2C2.945 6.57 2.705 6.015 2.285 5.535C1.895 5.055 1.61 4.575 1.43 4.095C0.95 2.775 0.74 1.485 0.8 0.224999C0.95 0.254999 1.28 0.299998 1.79 0.359998C2.33 0.389999 2.945 0.434999 3.635 0.494998C4.385 0.524998 5.555 0.569998 7.145 0.629999C8.765 0.689999 10.415 0.749998 12.095 0.809997C12.095 0.809997 12.335 0.824998 12.815 0.854999C13.325 0.854999 13.955 0.884999 14.705 0.944998C15.455 1.005 16.235 1.095 17.045 1.215C17.855 1.305 18.56 1.425 19.16 1.575C21.11 2.085 22.745 2.79 24.065 3.69C25.415 4.56 26.495 5.505 27.305 6.525C28.145 7.545 28.775 8.55 29.195 9.54C29.615 10.5 29.87 11.325 29.96 12.015ZM14.255 27.45C15.485 27.15 16.64 26.565 17.72 25.695C18.83 24.795 19.7 23.595 20.33 22.095C20.99 20.565 21.23 18.705 21.05 16.515C20.84 13.665 20.09 11.685 18.8 10.575C17.54 9.465 15.89 8.895 13.85 8.865C13.28 8.835 12.83 9.21 12.5 9.99C12.17 10.77 11.945 12.03 11.825 13.77C11.765 14.91 11.72 15.765 11.69 16.335C11.66 16.875 11.645 17.325 11.645 17.685C11.675 18.045 11.675 18.51 11.645 19.08C11.645 19.08 11.645 19.35 11.645 19.89C11.675 20.43 11.72 21.105 11.78 21.915C11.84 22.695 11.915 23.505 12.005 24.345C12.095 25.155 12.2 25.845 12.32 26.415C12.47 27.045 12.755 27.405 13.175 27.495C13.595 27.555 13.955 27.54 14.255 27.45ZM46.8487 9.945C47.4487 9.795 48.0037 9.945 48.5137 10.395C49.0237 10.845 49.4737 11.46 49.8637 12.24C50.2837 12.99 50.6287 13.77 50.8987 14.58C51.1687 15.36 51.3787 16.02 51.5287 16.56C51.6787 17.1 51.7537 17.37 51.7537 17.37C51.7537 17.37 51.3937 17.445 50.6737 17.595C49.9837 17.715 49.1137 17.97 48.0637 18.36C47.0437 18.72 46.0237 19.275 45.0037 20.025C44.4037 20.475 43.8337 21.015 43.2937 21.645C42.7537 22.275 42.2887 23.085 41.8987 24.075C41.5087 25.035 41.2237 26.31 41.0437 27.9C40.9537 28.71 40.9387 29.55 40.9987 30.42C41.0587 31.29 41.0887 32.025 41.0887 32.625C41.1187 33.165 41.1937 33.555 41.3137 33.795C41.4637 34.005 41.5837 34.185 41.6737 34.335C41.2837 34.695 40.5637 35.1 39.5137 35.55C38.4937 35.97 37.3687 36.18 36.1387 36.18C34.9387 36.18 34.0537 35.79 33.4837 35.01C32.9137 34.23 32.6287 33.15 32.6287 31.77C32.6287 31.44 32.6137 30.72 32.5837 29.61C32.5837 28.47 32.5687 27.105 32.5387 25.515C32.5387 23.925 32.5237 22.275 32.4937 20.565C32.4937 18.855 32.4787 17.265 32.4487 15.795C32.4487 14.295 32.4337 13.08 32.4037 12.15C32.4037 11.22 32.4037 10.755 32.4037 10.755C32.7037 10.695 33.2137 10.65 33.9337 10.62C34.6837 10.59 35.4937 10.62 36.3637 10.71C37.2337 10.8 38.0437 11.01 38.7937 11.34C39.1537 11.49 39.6337 11.64 40.2337 11.79C40.8637 11.91 41.4637 11.97 42.0337 11.97C42.6337 11.97 43.0687 11.88 43.3387 11.7C43.9087 11.28 44.4787 10.92 45.0487 10.62C45.6487 10.32 46.2487 10.095 46.8487 9.945ZM58.3687 9.225C57.3487 9.255 56.4337 8.97 55.6237 8.37C54.8437 7.77 54.2437 7.035 53.8237 6.165C53.4337 5.265 53.2837 4.41 53.3737 3.6C53.5237 2.37 54.0787 1.5 55.0387 0.989997C55.9987 0.479999 57.0037 0.209999 58.0537 0.179997C59.5537 0.119998 60.7237 0.509998 61.5637 1.35C62.4037 2.19 62.8237 3.15 62.8237 4.23C62.8237 4.95 62.6587 5.685 62.3287 6.435C62.0287 7.185 61.5487 7.83 60.8887 8.37C60.2287 8.88 59.3887 9.165 58.3687 9.225ZM63.1387 31.455C63.1687 31.995 63.3337 32.46 63.6337 32.85C63.9637 33.21 64.3537 33.555 64.8037 33.885C64.5937 34.155 64.3237 34.44 63.9937 34.74C63.6637 35.04 63.1687 35.325 62.5087 35.595C61.8787 35.835 60.9637 36.03 59.7637 36.18C59.3737 36.21 58.8787 36.165 58.2787 36.045C57.6787 35.955 57.0787 35.67 56.4787 35.19C55.9087 34.68 55.4437 33.885 55.0837 32.805C54.7237 31.695 54.5737 30.18 54.6337 28.26C54.6637 27.93 54.6637 27.285 54.6337 26.325C54.6337 25.365 54.6187 24.225 54.5887 22.905C54.5887 21.585 54.5737 20.22 54.5437 18.81C54.5437 17.4 54.5287 16.095 54.4987 14.895C54.4987 13.665 54.4837 12.675 54.4537 11.925C54.4537 11.145 54.4537 10.755 54.4537 10.755C54.7237 10.725 55.1737 10.695 55.8037 10.665C56.4637 10.605 57.1837 10.605 57.9637 10.665C58.7437 10.725 59.4937 10.875 60.2137 11.115C60.9637 11.325 61.5937 11.67 62.1037 12.15C62.6437 12.63 62.9587 13.275 63.0487 14.085C63.1987 15.225 63.2587 16.755 63.2287 18.675C63.1987 20.565 63.1537 22.635 63.0937 24.885C63.0337 27.105 63.0487 29.295 63.1387 31.455ZM67.592 32.31C67.592 32.07 67.592 31.425 67.592 30.375C67.592 29.295 67.592 27.96 67.592 26.37C67.592 24.78 67.577 23.04 67.547 21.15C67.547 19.23 67.547 17.295 67.547 15.345C67.547 13.395 67.532 11.55 67.502 9.81C67.502 8.04 67.487 6.51 67.457 5.22C67.427 3.99 67.322 2.97 67.142 2.16C66.962 1.32 66.857 0.809999 66.827 0.629999C67.187 0.569998 67.727 0.554998 68.447 0.584997C69.167 0.584997 69.962 0.674998 70.832 0.854999C71.732 1.005 72.587 1.26 73.397 1.62C74.207 1.95 74.882 2.43 75.422 3.06C75.962 3.66 76.247 4.425 76.277 5.355C76.307 5.925 76.322 6.93 76.322 8.37C76.352 9.78 76.367 11.445 76.367 13.365C76.397 15.255 76.427 17.205 76.457 19.215C76.487 21.195 76.502 23.07 76.502 24.84C76.532 26.61 76.547 28.095 76.547 29.295C76.577 30.465 76.592 31.155 76.592 31.365C76.592 31.995 76.757 32.61 77.087 33.21C77.447 33.78 77.822 34.14 78.212 34.29C78.032 34.53 77.627 34.845 76.997 35.235C76.367 35.625 75.632 35.985 74.792 36.315C73.982 36.645 73.157 36.855 72.317 36.945C71.627 37.005 70.907 36.84 70.157 36.45C69.437 36.09 68.822 35.55 68.312 34.83C67.832 34.11 67.592 33.27 67.592 32.31ZM102.917 24.705C103.667 25.215 104.147 25.95 104.357 26.91C104.597 27.84 104.567 28.86 104.267 29.97C103.997 31.08 103.442 32.145 102.602 33.165C101.762 34.155 100.622 34.98 99.1823 35.64C97.7723 36.3 96.0623 36.645 94.0523 36.675C92.3723 36.705 90.7223 36.495 89.1023 36.045C87.5123 35.595 86.0573 34.905 84.7373 33.975C83.4473 33.045 82.3973 31.845 81.5873 30.375C80.7773 28.905 80.3273 27.15 80.2373 25.11C80.2073 24.69 80.2073 24.255 80.2373 23.805C80.2673 23.355 80.2973 22.89 80.3273 22.41C80.3273 22.29 80.3273 22.17 80.3273 22.05C80.3573 21.93 80.3873 21.81 80.4173 21.69C80.7173 19.89 81.3323 18.24 82.2623 16.74C83.2223 15.24 84.3923 13.965 85.7723 12.915C87.1523 11.865 88.6223 11.1 90.1823 10.62C91.7723 10.11 93.3323 9.93 94.8623 10.08C97.2323 10.32 99.0623 10.95 100.352 11.97C101.672 12.99 102.527 14.25 102.917 15.75C103.337 17.22 103.352 18.81 102.962 20.52C102.752 21.36 102.272 22.2 101.522 23.04C100.802 23.85 99.9023 24.585 98.8223 25.245C97.7423 25.875 96.5873 26.37 95.3573 26.73C94.1573 27.06 92.9873 27.195 91.8473 27.135C91.2773 27.105 90.9773 27.285 90.9473 27.675C90.9173 28.035 91.0823 28.44 91.4423 28.89C91.8023 29.31 92.2823 29.595 92.8823 29.745C94.2923 30.045 95.6123 30.06 96.8423 29.79C98.1023 29.49 99.0623 29.085 99.7223 28.575C100.262 28.155 100.832 27.6 101.432 26.91C102.032 26.19 102.527 25.455 102.917 24.705ZM93.0623 20.16C93.7523 20.1 94.3523 19.89 94.8623 19.53C95.4023 19.14 95.6723 18.735 95.6723 18.315C95.7023 17.715 95.5523 17.235 95.2223 16.875C94.9223 16.485 94.3973 16.305 93.6473 16.335C92.8073 16.365 91.9973 16.485 91.2173 16.695C90.4373 16.905 89.9723 17.34 89.8223 18C89.7323 18.45 89.8673 18.84 90.2273 19.17C90.5873 19.5 91.0373 19.755 91.5773 19.935C92.1173 20.085 92.6123 20.16 93.0623 20.16Z" fill="#424346"/>
</svg>
